<svg width="79" height="79" viewBox="0 0 79 79" fill="none" xmlns="http://www.w3.org/2000/svg">
<path d="M27.1666 31.2782L40.5606 41.3257C41.3904 41.9481 42.4248 42.2337 43.4564 42.1255C44.4879 42.0172 45.4404 41.523 46.123 40.742L72.3888 10.7227" stroke="#4F46E5" stroke-width="5" stroke-linecap="round"/>
<path d="M76.5 39.4993C76.5001 47.2304 74.0786 54.7673 69.5755 61.0515C65.0724 67.3357 58.7139 72.0514 51.3931 74.5365C44.0723 77.0215 36.157 77.1509 28.7589 74.9066C21.3608 72.6623 14.8515 68.157 10.1453 62.0234C5.43912 55.8898 2.77243 48.4361 2.51977 40.7092C2.26712 32.9823 4.44119 25.3703 8.73665 18.9424C13.0321 12.5145 19.2332 7.59351 26.4689 4.87069C33.7046 2.14787 41.6114 1.75996 49.0789 3.76144" stroke="#4F46E5" stroke-width="5" stroke-linecap="round"/>
</svg>
