<svg width="13" height="13" viewBox="0 0 13 13" fill="none" xmlns="http://www.w3.org/2000/svg">
<path d="M0.914062 0.0996094C1.02091 0.099626 1.12687 0.121222 1.22559 0.162109C1.32426 0.203012 1.41373 0.263337 1.48926 0.338867L5.97168 4.82129L6.04297 4.8916L6.11328 4.82129L10.5957 0.347656C10.6712 0.271985 10.7616 0.21186 10.8604 0.170898C10.959 0.130028 11.0651 0.108398 11.1719 0.108398C11.2786 0.108456 11.3848 0.129993 11.4834 0.170898C11.582 0.211856 11.6717 0.272092 11.7471 0.347656C12.0562 0.656897 12.0562 1.17999 11.7471 1.48926L7.19336 6.04297L7.26465 6.11328L11.7471 10.5957C11.8227 10.6713 11.8829 10.7616 11.9238 10.8604C11.9646 10.959 11.9854 11.0652 11.9854 11.1719C11.9853 11.2786 11.9647 11.3848 11.9238 11.4834C11.8829 11.582 11.8226 11.6716 11.7471 11.7471C11.6716 11.8226 11.582 11.8829 11.4834 11.9238C11.3848 11.9647 11.2786 11.9853 11.1719 11.9854C11.0652 11.9854 10.959 11.9646 10.8604 11.9238C10.7616 11.8829 10.6713 11.8227 10.5957 11.7471L6.11328 7.26465L6.04297 7.19336L1.48926 11.7471C1.41371 11.8226 1.32427 11.883 1.22559 11.9238C1.12687 11.9647 1.02091 11.9853 0.914062 11.9854C0.807253 11.9854 0.701228 11.9647 0.602539 11.9238C0.503911 11.883 0.414389 11.8225 0.338867 11.7471C0.263405 11.6716 0.203009 11.582 0.162109 11.4834C0.121262 11.3848 0.0996671 11.2786 0.0996094 11.1719C0.0996094 11.0651 0.121282 10.959 0.162109 10.8604C0.203014 10.7616 0.263287 10.6713 0.338867 10.5957L4.8916 6.04297L4.82129 5.97168L0.338867 1.48926C0.263337 1.41373 0.203012 1.32426 0.162109 1.22559C0.121222 1.12687 0.099626 1.02091 0.0996094 0.914062C0.0996094 0.807181 0.12121 0.701285 0.162109 0.602539C0.203013 0.503788 0.263286 0.414448 0.338867 0.338867C0.414448 0.263286 0.503788 0.203013 0.602539 0.162109C0.701285 0.12121 0.807181 0.0996094 0.914062 0.0996094Z" fill="#8A8A8A" stroke="#F8FAFC" stroke-width="0.2"/>
</svg>
