<svg width="24" height="24" viewBox="0 0 24 24" fill="none" xmlns="http://www.w3.org/2000/svg">
<path d="M10.9922 14.8053C11.9974 14.1361 12.7606 13.1612 13.1688 12.0248C13.5771 10.8883 13.6088 9.65061 13.2592 8.49474C12.9096 7.33887 12.1974 6.32618 11.2278 5.60642C10.2581 4.88666 9.08262 4.49805 7.87505 4.49805C6.66747 4.49805 5.49196 4.88666 4.52233 5.60642C3.55271 6.32618 2.84045 7.33887 2.49088 8.49474C2.14132 9.65061 2.17301 10.8883 2.58126 12.0248C2.98952 13.1612 3.75267 14.1361 4.75786 14.8053C2.93957 15.4755 1.38671 16.7156 0.330984 18.3406C0.275499 18.4231 0.236959 18.5158 0.217604 18.6133C0.198249 18.7108 0.198466 18.8111 0.218241 18.9085C0.238017 19.0059 0.276957 19.0984 0.332798 19.1807C0.388639 19.2629 0.460266 19.3332 0.543518 19.3875C0.626769 19.4418 0.719983 19.479 0.817742 19.497C0.9155 19.5149 1.01585 19.5133 1.11297 19.4921C1.21008 19.4709 1.30202 19.4307 1.38344 19.3737C1.46486 19.3167 1.53413 19.244 1.58723 19.16C2.26822 18.1126 3.20007 17.2519 4.29814 16.6561C5.39622 16.0603 6.62574 15.7482 7.87505 15.7482C9.12436 15.7482 10.3539 16.0603 11.452 16.6561C12.55 17.2519 13.4819 18.1126 14.1629 19.16C14.2729 19.3235 14.4428 19.4371 14.6359 19.4763C14.829 19.5156 15.0298 19.4772 15.1949 19.3695C15.3599 19.2619 15.476 19.0936 15.5179 18.9011C15.5599 18.7085 15.5244 18.5072 15.4191 18.3406C14.3634 16.7156 12.8105 15.4755 10.9922 14.8053ZM3.75005 10.1253C3.75005 9.30948 3.99197 8.51195 4.44523 7.8336C4.8985 7.15525 5.54273 6.62654 6.29648 6.31433C7.05022 6.00212 7.87962 5.92043 8.67979 6.07959C9.47997 6.23875 10.215 6.63162 10.7919 7.20851C11.3688 7.78541 11.7616 8.52041 11.9208 9.32058C12.0799 10.1208 11.9983 10.9502 11.686 11.7039C11.3738 12.4576 10.8451 13.1019 10.1668 13.5551C9.48842 14.0084 8.69089 14.2503 7.87505 14.2503C6.78141 14.2491 5.73292 13.8141 4.9596 13.0408C4.18628 12.2675 3.75129 11.219 3.75005 10.1253ZM23.4507 19.3785C23.2841 19.4871 23.0812 19.5251 22.8865 19.4841C22.6919 19.4432 22.5215 19.3266 22.4129 19.16C21.7327 18.112 20.801 17.2509 19.7027 16.6554C18.6044 16.0598 17.3744 15.7487 16.125 15.7503C15.9261 15.7503 15.7354 15.6713 15.5947 15.5307C15.4541 15.39 15.375 15.1992 15.375 15.0003C15.375 14.8014 15.4541 14.6107 15.5947 14.47C15.7354 14.3293 15.9261 14.2503 16.125 14.2503C16.7325 14.2498 17.3324 14.115 17.8817 13.8557C18.4311 13.5965 18.9164 13.2191 19.303 12.7505C19.6896 12.2819 19.9679 11.7337 20.1181 11.1451C20.2683 10.5565 20.2866 9.94198 20.1718 9.34547C20.0569 8.74895 19.8117 8.18516 19.4537 7.69439C19.0958 7.20361 18.6338 6.79796 18.1008 6.50642C17.5679 6.21488 16.9771 6.04465 16.3708 6.00789C15.7644 5.97113 15.1574 6.06875 14.5932 6.29377C14.5012 6.33354 14.4021 6.35447 14.3019 6.35531C14.2017 6.35616 14.1023 6.33691 14.0096 6.2987C13.917 6.26049 13.8329 6.20409 13.7624 6.13284C13.6919 6.0616 13.6364 5.97694 13.5992 5.88388C13.562 5.79082 13.5438 5.69124 13.5457 5.59103C13.5476 5.49082 13.5696 5.39201 13.6103 5.30044C13.6511 5.20887 13.7098 5.12639 13.7829 5.05788C13.8561 4.98938 13.9422 4.93623 14.0363 4.90158C15.3277 4.38656 16.764 4.36803 18.0682 4.84955C19.3725 5.33108 20.4522 6.27854 21.099 7.50916C21.7459 8.73978 21.9141 10.1664 21.5713 11.5137C21.2284 12.861 20.3987 14.0336 19.2422 14.8053C21.0605 15.4755 22.6134 16.7156 23.6691 18.3406C23.7777 18.5072 23.8158 18.7102 23.7748 18.9048C23.7338 19.0994 23.6172 19.2698 23.4507 19.3785Z" fill="#525252"/>
</svg>
