<svg width="18" height="18" viewBox="0 0 18 18" fill="none" xmlns="http://www.w3.org/2000/svg">
<path d="M9 0C12.5951 0 14.3928 -0.000195435 15.6875 0.856445C16.2657 1.239 16.761 1.73434 17.1436 2.3125C18.0002 3.60723 18 5.40493 18 9C18 12.5951 18.0002 14.3928 17.1436 15.6875C16.761 16.2657 16.2657 16.761 15.6875 17.1436C14.3928 18.0002 12.5951 18 9 18C5.40493 18 3.60723 18.0002 2.3125 17.1436C1.73434 16.761 1.239 16.2657 0.856445 15.6875C-0.000195435 14.3928 0 12.5951 0 9C0 5.40493 -0.000195544 3.60723 0.856445 2.3125C1.239 1.73434 1.73434 1.239 2.3125 0.856445C3.60723 -0.000195545 5.40493 0 9 0ZM9 4.33984C6.42682 4.33984 4.34104 6.42589 4.34082 8.99902C4.34082 11.5723 6.42668 13.6592 9 13.6592C11.5732 13.6591 13.6592 11.5723 13.6592 8.99902C13.659 6.42595 11.5731 4.33993 9 4.33984ZM9 5.91602C10.7025 5.9161 12.0828 7.29657 12.083 8.99902C12.083 10.7017 10.7026 12.0819 9 12.082C7.2973 12.082 5.91699 10.7017 5.91699 8.99902C5.91721 7.29652 7.29744 5.91602 9 5.91602ZM13.8438 3.01172C13.2392 3.01172 12.7482 3.50192 12.748 4.10645C12.748 4.7111 13.2391 5.20117 13.8438 5.20117C14.4482 5.20092 14.9385 4.71094 14.9385 4.10645C14.9383 3.50208 14.4481 3.01198 13.8438 3.01172Z" fill="#736BEA"/>
</svg>
