<svg width="24" height="24" viewBox="0 0 24 24" fill="none" xmlns="http://www.w3.org/2000/svg">
<path d="M15.4807 7.17501C15.6224 7.47691 15.9052 7.68831 16.2349 7.73867L22.0755 8.63081C22.8801 8.75372 23.2087 9.73512 22.6402 10.3177L18.3519 14.7128C18.1302 14.94 18.0296 15.259 18.0807 15.5722L19.0847 21.7252C19.2192 22.5491 18.3446 23.1653 17.614 22.7615L12.4832 19.9255C12.1821 19.7591 11.8167 19.7591 11.5156 19.9255L6.38556 22.7614C5.65501 23.1653 4.78045 22.5492 4.91479 21.7253L5.91817 15.5722C5.96925 15.2589 5.8686 14.9401 5.64696 14.7129L1.35856 10.3177C0.790129 9.73512 1.11869 8.75372 1.92331 8.63081L7.76386 7.73867C8.09354 7.68831 8.37642 7.47691 8.51812 7.17501L11.0941 1.68645C11.4541 0.91962 12.5447 0.91962 12.9046 1.68645L15.4807 7.17501Z" fill="#F4A316"/>
</svg>
